<svg width="44" height="43" viewBox="0 0 44 43" fill="none" xmlns="http://www.w3.org/2000/svg">
<path d="M40.5526 21C42.4565 21 44.0276 22.5527 43.7304 24.4334C43.2648 27.3806 42.2024 30.2147 40.595 32.7569C38.3707 36.2749 35.1941 39.0897 31.4341 40.8746C27.674 42.6594 23.4848 43.341 19.3528 42.8402C15.2209 42.3393 11.3158 40.6767 8.09104 38.0453C4.86626 35.4138 2.4541 31.9216 1.13467 27.9741C-0.184754 24.0266 -0.357311 19.7858 0.63704 15.7442C1.63139 11.7025 3.75185 8.02585 6.75218 5.14112C8.92037 3.05648 11.4837 1.44722 14.2777 0.399849C16.0605 -0.26847 17.8968 0.959192 18.2787 2.82444C18.6606 4.68969 17.4311 6.477 15.7006 7.27102C14.1686 7.97397 12.7576 8.93181 11.5308 10.1113C9.47081 12.0919 8.0149 14.6163 7.33218 17.3913C6.64946 20.1663 6.76794 23.0781 7.67386 25.7884C8.57978 28.4988 10.236 30.8965 12.4501 32.7033C14.6642 34.51 17.3455 35.6516 20.1825 35.9955C23.0194 36.3393 25.8958 35.8713 28.4774 34.6459C31.0591 33.4204 33.2402 31.4878 34.7673 29.0723C35.6768 27.6339 36.3321 26.0595 36.7135 24.4176C37.1443 22.563 38.6487 21 40.5526 21Z" fill="url(#paint0_linear_16034_35248)"/>
<defs>
<linearGradient id="paint0_linear_16034_35248" x1="21.2075" y1="-82.8125" x2="-148.846" y2="52.0567" gradientUnits="userSpaceOnUse">
<stop stop-color="#F83600"/>
<stop offset="1" stop-color="#F9D423"/>
</linearGradient>
</defs>
</svg>
